<svg width="307" height="26" viewBox="0 0 307 26" fill="none" xmlns="http://www.w3.org/2000/svg">
<path d="M305.194 0C306.177 0 307 0.773953 307 1.78977C307 2.82286 306.177 3.59681 305.194 3.59681C304.208 3.59681 303.378 2.82286 303.378 1.78977C303.378 0.773953 304.208 0 305.194 0ZM305.194 3.33422C306.028 3.33422 306.671 2.67083 306.671 1.78977C306.671 0.929435 306.024 0.266046 305.194 0.266046C304.35 0.266046 303.706 0.929435 303.706 1.78977C303.706 2.67083 304.35 3.33422 305.194 3.33422ZM304.492 0.746312H305.305C305.806 0.746312 306.042 0.943256 306.042 1.34751C306.042 1.72757 305.799 1.88651 305.488 1.92106L306.09 2.8505H305.737L305.163 1.94525H304.817V2.8505H304.488V0.746312H304.492ZM304.817 1.6792H305.159C305.447 1.6792 305.713 1.66538 305.713 1.33369C305.713 1.05382 305.471 1.01236 305.249 1.01236H304.817V1.6792Z" fill="#003C50"/>
<path d="M0.231812 3.69696V25.6579" stroke="#003C50" stroke-width="1.3432"/>
<path d="M286.885 3.69696V25.6579" stroke="#003C50" stroke-width="1.3432"/>
<path d="M35.0291 21.2871L34.998 15.2959H23.0379L23.0621 21.2871C23.0621 22.5863 23.2489 23.4915 23.6157 24.0029C23.9858 24.5142 24.6466 24.9876 25.6084 24.9876L25.6119 25.4057H17.6754V24.9876C18.6372 24.9876 19.2842 24.5108 19.6336 23.9925C19.983 23.4742 20.1595 22.5724 20.1595 21.2871V7.60472C20.1595 6.25722 19.9796 5.33469 19.6267 4.84406C19.2703 4.35343 18.6268 3.75569 17.6754 3.75569V3.46891H25.6119L25.6257 3.75569C24.6639 3.75569 23.9824 4.3707 23.6157 4.89934C23.2489 5.43143 23.0621 6.32977 23.0621 7.60127V13.4405H35.0291V7.60127C35.0291 6.25376 34.8596 5.33469 34.5136 4.8406C34.1676 4.34997 33.5345 3.75223 32.5831 3.75223L32.5727 3.46545H40.4435V3.75223C39.5059 3.75223 38.852 4.35688 38.4922 4.86825C38.129 5.37961 37.9491 6.29177 37.9491 7.60127V21.2871C37.9491 22.6001 38.129 23.5088 38.4922 24.0132C38.852 24.5177 39.5059 24.9703 40.4435 24.9703V25.4057H32.5762L32.6073 24.9703C33.5795 24.9703 34.2022 24.5211 34.5309 24.0132C34.863 23.5088 35.0291 22.5966 35.0291 21.2871Z" fill="#003C50"/>
<path d="M46.356 14.3354C46.356 11.0806 47.4803 8.36489 49.7291 6.18815C51.9779 4.01141 54.7802 2.92303 58.1361 2.92303C61.3951 2.92303 64.1525 4.02523 66.4047 6.23307C68.6569 8.44091 69.7882 11.1394 69.7882 14.3319C69.7882 17.5867 68.65 20.337 66.377 22.5794C64.104 24.8252 61.3259 25.9481 58.0427 25.9481C54.7699 25.9481 52.0056 24.8252 49.7464 22.5794C47.4838 20.3404 46.356 17.5901 46.356 14.3354ZM49.8191 14.3734C49.8191 17.5763 50.4868 19.7634 52.0125 21.7363C53.5348 23.7127 56.3405 24.6283 58.2122 24.6283C60.0839 24.6283 62.5299 23.6919 64.0833 21.6707C65.6367 19.6494 66.3217 17.5383 66.3217 14.522C66.3217 11.281 65.6505 9.08356 64.1282 7.12104C62.606 5.15852 59.9939 4.312 58.1153 4.312C56.2367 4.312 53.5797 5.14124 52.0402 7.07612C50.4972 9.00755 49.8191 11.167 49.8191 14.3734Z" fill="#003C50"/>
<path d="M196.191 14.3354C196.191 11.0806 197.315 8.36489 199.56 6.18815C201.809 4.01141 204.611 2.92303 207.971 2.92303C211.23 2.92303 213.987 4.02523 216.239 6.23307C218.492 8.44091 219.619 11.1394 219.619 14.3319C219.619 17.5867 218.481 20.337 216.212 22.5794C213.939 24.8252 211.16 25.9481 207.877 25.9481C204.604 25.9481 201.84 24.8252 199.578 22.5794C197.322 20.3404 196.191 17.5901 196.191 14.3354ZM199.654 14.3734C199.654 17.5763 200.321 19.7634 201.847 21.7363C203.369 23.7127 206.175 24.6283 208.047 24.6283C209.918 24.6283 212.364 23.6919 213.918 21.6707C215.475 19.6494 216.156 17.5383 216.156 14.522C216.156 11.281 215.485 9.08356 213.963 7.12104C212.441 5.15852 209.829 4.312 207.95 4.312C206.071 4.312 203.414 5.14124 201.875 7.07612C200.332 9.00755 199.654 11.167 199.654 14.3734Z" fill="#003C50"/>
<path d="M95.9538 3.46899H101.143V3.75577C99.4965 3.79378 98.6696 5.1171 98.6696 7.02434C98.6696 7.18674 98.6765 7.35604 98.6869 7.5288L98.6938 21.0523C98.6938 22.9699 98.9291 23.4501 99.2993 23.9269C99.666 24.4037 100.327 24.9013 101.289 24.9911L101.296 25.4092H93.3902L93.4109 24.9911C94.2482 24.8529 94.819 24.3588 95.165 23.9477C95.5075 23.533 95.6839 22.9008 95.6839 22.0473C95.6839 21.8711 95.677 21.6776 95.6632 21.4634L95.7151 7.4977L88.0346 22.6658L79.7798 7.31458L79.8006 20.8069C79.7868 21.0177 79.7798 21.2181 79.7798 21.4081C79.7798 23.3016 80.7243 24.6387 82.6306 24.9911L82.641 25.4092H75.8047L75.8151 24.9911C76.725 24.8667 77.3719 24.4452 77.7767 23.9304C78.1815 23.4121 78.2714 22.4723 78.2334 20.7689L78.3199 6.41624C78.3199 4.6161 76.9637 3.94235 75.8289 3.75577V3.46899H81.392L88.512 17.8182L95.9538 3.46899Z" fill="#003C50"/>
<path d="M122.552 12.2174H122.915V16.8888H122.628C122.392 15.9524 121.801 15.7348 121.444 15.5517C121.078 15.3651 120.369 15.2614 119.23 15.2614H113.767V22.4378C113.767 22.9871 113.889 23.3741 114.131 23.5987C114.376 23.8233 114.792 23.9338 115.38 23.9338H119.227C120.604 23.9338 121.555 23.8578 122.078 23.7093C122.603 23.5607 123.337 23.3672 123.7 22.9629C124.063 22.5587 124.14 22.5207 124.555 21.612H125.056L124.202 25.4126H108.395L108.408 24.9946C109.377 24.9946 110.024 24.5247 110.363 24.0202C110.699 23.5158 110.868 22.6174 110.868 21.3321V7.60481C110.868 6.26767 110.695 5.35205 110.346 4.85451C109.996 4.35697 109.353 3.75577 108.391 3.75577L108.377 3.46899H124.205V6.97597H123.946C123.721 5.92906 123.292 5.66301 122.856 5.39006C122.396 5.10328 121.503 4.94089 120.106 4.94089H113.774V13.9243H119.929C120.766 13.9243 121.417 13.831 121.721 13.5338C122.029 13.2332 122.413 13.0536 122.552 12.2174Z" fill="#003C50"/>
<path d="M163.815 15.8971V16.2668C162.843 16.2668 162.739 16.6676 162.403 17.1444C162.051 17.642 161.902 18.4194 161.902 19.5043V25.4092C161.39 25.5439 160.431 25.6718 159.027 25.7858C157.622 25.8963 156.532 25.9551 155.757 25.9551C151.699 25.9551 148.537 24.9565 146.271 22.9629C144.005 20.9693 142.87 18.3365 142.87 15.0679C142.87 12.7875 143.365 10.7282 144.358 8.897C145.351 7.06231 146.735 5.61115 148.513 4.54006C150.291 3.46896 152.177 2.93341 154.173 2.93341C155.37 2.93341 156.674 3.14417 158.082 3.56916C158.978 3.83175 159.667 3.96305 160.141 3.96305C160.764 3.96305 161.895 3.95959 162.092 3.47587H162.102L162.092 9.17687H161.722C161.473 7.38019 160.66 6.50604 159.203 5.55241C157.709 4.64025 155.986 4.41567 154.138 4.41567C151.82 4.41567 149.952 5.11361 148.468 6.96557C146.984 8.81753 146.24 10.8042 146.24 13.7342C146.24 16.951 147.174 19.2901 148.894 21.4081C150.609 23.5296 152.658 24.1791 155.252 24.1791C157.712 24.1791 158.975 23.8682 158.975 22.3064V20.1988C158.975 18.8478 158.799 17.9046 158.442 17.369C158.086 16.83 157.605 16.2876 156.705 16.2876V15.9179H163.815V15.8971Z" fill="#003C50"/>
<path d="M163.815 15.8971V16.2668C162.843 16.2668 162.739 16.6676 162.403 17.1444C162.051 17.642 161.902 18.4194 161.902 19.5043V25.4092C161.39 25.5439 160.431 25.6718 159.027 25.7858C157.622 25.8963 156.532 25.9551 155.757 25.9551C151.699 25.9551 148.537 24.9565 146.271 22.9629C144.005 20.9693 142.87 18.3365 142.87 15.0679C142.87 12.7875 143.365 10.7282 144.358 8.897C145.351 7.06231 146.735 5.61115 148.513 4.54006C150.291 3.46896 152.177 2.93341 154.173 2.93341C155.37 2.93341 156.674 3.14417 158.082 3.56916C158.978 3.83175 159.667 3.96305 160.141 3.96305C160.764 3.96305 161.895 3.95959 162.092 3.47587H162.102L162.092 9.17687H161.722C161.473 7.38019 160.66 6.50604 159.203 5.55241C157.709 4.64025 155.986 4.41567 154.138 4.41567C151.82 4.41567 149.952 5.11361 148.468 6.96557C146.984 8.81753 146.24 10.8042 146.24 13.7342C146.24 16.951 147.174 19.2901 148.894 21.4081C150.609 23.5296 152.658 24.1791 155.252 24.1791C157.712 24.1791 158.975 23.8682 158.975 22.3064V20.1988C158.975 18.8478 158.799 17.9046 158.442 17.369C158.086 16.83 157.605 16.2876 156.705 16.2876V15.9179H163.815V15.8971Z" fill="#003C50"/>
<path d="M178.363 14.712C179.799 14.287 181.131 13.9415 182.047 13.0189C182.964 12.0964 183.608 10.8076 183.608 9.28393C183.608 7.79821 183.116 6.88605 182.099 5.97044C181.082 5.05482 179.719 4.71622 178.045 4.71622H175.74V14.3354V15.251V21.2733C175.74 22.569 175.924 23.4742 176.294 23.9856C176.661 24.4969 177.315 24.9945 178.252 24.9945V25.4091H170.347L170.35 24.9945C171.322 24.9945 171.98 24.5004 172.322 23.9856C172.665 23.4742 172.838 22.569 172.838 21.2733V7.52525C172.838 6.22612 172.668 5.33469 172.333 4.8406C171.997 4.34652 171.329 3.75223 170.34 3.75223L170.347 3.46545H179.356C181.577 3.46545 183.628 4.00446 184.957 5.08246C186.286 6.16047 186.953 7.53562 186.953 9.20791C186.953 11.8995 185.417 14.2801 182.151 14.5945C183.023 15.1922 183.494 15.79 184.282 16.4775C185.898 17.8872 187.161 19.5906 188.759 21.1074C190.174 22.448 190.489 22.9249 191.364 23.6159C192.087 24.2344 193.136 24.9772 193.859 24.9772L193.848 25.4195C191.852 25.4678 190.804 25.5266 189.531 25.067C188.261 24.6075 187.687 24.1203 185.971 22.3409C183.781 20.0709 182.165 18.4919 181.425 17.6765C180.66 16.83 179.563 15.5861 178.363 14.712Z" fill="#003C50"/>
<path d="M239.824 3.51385L239.831 3.75226C240.817 3.75226 241.477 4.39837 241.827 4.89591C242.176 5.39346 242.353 6.29871 242.353 7.60821V18.72C242.353 21.3148 241.861 22.0646 240.872 23.0907C239.886 24.1204 238.512 24.6352 236.751 24.6352C234.991 24.6352 233.617 24.1204 232.631 23.0907C231.645 22.0646 231.15 21.3873 231.15 18.72V7.61166C231.15 6.30216 231.323 5.39691 231.676 4.89937C232.026 4.40183 232.679 3.75572 233.669 3.75572L233.683 3.51731H225.739L225.753 3.75572C226.725 3.75572 227.372 4.40874 227.718 4.9201C228.061 5.43146 228.234 6.34017 228.234 7.64967V18.4436C228.234 20.7136 228.898 22.5414 230.23 23.9234C231.559 25.3089 234.202 26 236.748 26C239.294 26 241.958 25.3089 243.287 23.9234C244.615 22.5379 245.283 20.7136 245.283 18.4436V7.64967C245.283 6.34017 245.456 5.43146 245.799 4.9201C246.141 4.40874 246.798 3.75572 247.774 3.75572V3.51731H239.824V3.51385Z" fill="#003C50"/>
<path d="M268.155 5.20685C266.626 4.04592 264.55 3.46545 261.928 3.46545H253.911L253.918 3.74878C254.866 3.74878 255.513 4.36034 255.87 4.8717C256.226 5.38306 256.402 6.29522 256.402 7.60472V21.3666C256.402 22.5897 256.226 23.4639 255.87 23.989C255.513 24.5142 254.852 24.9945 253.905 24.9945L253.915 25.4126H261.82L261.827 24.9876C260.879 24.9876 260.218 24.528 259.862 24.0271C259.506 23.5261 259.329 22.6173 259.329 21.2906V15.3477C260.613 15.3477 261.737 15.365 262.702 15.365C265.2 15.365 267.117 14.8744 268.452 13.8966C269.788 12.9187 270.456 11.5194 270.456 9.69854C270.449 7.86386 269.684 6.36778 268.155 5.20685ZM265.951 12.7805C264.996 13.627 263.685 13.9518 262.035 13.9518C260.962 13.9518 260.094 13.9518 259.336 13.9518L259.326 9.32884V9.32193V4.69203C260.084 4.69203 260.969 4.71967 262.042 4.71967C263.688 4.71967 264.993 4.95117 265.948 5.79768C266.903 6.64419 267.366 7.76021 267.366 9.32884C267.366 10.894 266.906 11.9306 265.951 12.7805Z" fill="#003C50"/>
</svg>
