<svg width="166" height="14" viewBox="0 0 166 14" fill="none" xmlns="http://www.w3.org/2000/svg">
<path d="M165.029 0C165.557 0 166 0.416744 166 0.963722C166 1.52 165.557 1.93675 165.029 1.93675C164.498 1.93675 164.052 1.52 164.052 0.963722C164.052 0.416744 164.498 0 165.029 0ZM165.029 1.79535C165.477 1.79535 165.823 1.43814 165.823 0.963722C165.823 0.500465 165.475 0.143256 165.029 0.143256C164.575 0.143256 164.229 0.500465 164.229 0.963722C164.229 1.43814 164.575 1.79535 165.029 1.79535ZM164.651 0.401861H165.088C165.358 0.401861 165.485 0.507907 165.485 0.725582C165.485 0.930233 165.354 1.01581 165.187 1.03442L165.511 1.53488H165.321L165.012 1.04744H164.826V1.53488H164.649V0.401861H164.651ZM164.826 0.904187H165.01C165.165 0.904187 165.308 0.896745 165.308 0.71814C165.308 0.567442 165.178 0.545117 165.058 0.545117H164.826V0.904187Z" fill="#003C50"/>
<path d="M1 1.99023V13.8154" stroke="#003C50" stroke-width="1.3432"/>
<path d="M155.181 1.99023V13.8154" stroke="#003C50" stroke-width="1.3432"/>
<path d="M19.7163 11.4615L19.6995 8.23547H13.2666L13.2796 11.4615C13.2796 12.1611 13.3801 12.6485 13.5774 12.9238C13.7765 13.1992 14.1319 13.4541 14.6492 13.4541L14.6511 13.6792H10.3823V13.4541C10.8996 13.4541 11.2476 13.1973 11.4356 12.9183C11.6235 12.6392 11.7184 12.1536 11.7184 11.4615V4.09407C11.7184 3.36849 11.6216 2.87175 11.4318 2.60756C11.2402 2.34337 10.8941 2.02151 10.3823 2.02151V1.86709H14.6511L14.6585 2.02151C14.1412 2.02151 13.7746 2.35268 13.5774 2.63733C13.3801 2.92384 13.2796 3.40756 13.2796 4.09221V7.2364H19.7163V4.09221C19.7163 3.36663 19.6251 2.87175 19.439 2.6057C19.2529 2.34151 18.9124 2.01965 18.4007 2.01965L18.3951 1.86523H22.6285V2.01965C22.1242 2.01965 21.7725 2.34523 21.579 2.62058C21.3836 2.89593 21.2868 3.3871 21.2868 4.09221V11.4615C21.2868 12.1685 21.3836 12.6578 21.579 12.9294C21.7725 13.2011 22.1242 13.4448 22.6285 13.4448V13.6792H18.3969L18.4137 13.4448C18.9366 13.4448 19.2715 13.2029 19.4483 12.9294C19.6269 12.6578 19.7163 12.1666 19.7163 11.4615Z" fill="#003C50"/>
<path d="M25.8086 7.71885C25.8086 5.96629 26.4134 4.50396 27.6229 3.33187C28.8324 2.15978 30.3397 1.57373 32.1447 1.57373C33.8976 1.57373 35.3807 2.16722 36.5921 3.35606C37.8035 4.54489 38.412 5.99792 38.412 7.71699C38.412 9.46955 37.7998 10.9505 36.5772 12.1579C35.3547 13.3672 33.8604 13.9719 32.0945 13.9719C30.3341 13.9719 28.8473 13.3672 27.6322 12.1579C26.4152 10.9523 25.8086 9.47141 25.8086 7.71885ZM27.6713 7.73931C27.6713 9.46397 28.0304 10.6416 28.8511 11.704C29.6698 12.7682 31.179 13.2612 32.1857 13.2612C33.1924 13.2612 34.508 12.757 35.3435 11.6686C36.179 10.5802 36.5475 9.4435 36.5475 7.81931C36.5475 6.0742 36.1865 4.89094 35.3677 3.8342C34.5489 2.77745 33.144 2.32164 32.1336 2.32164C31.1231 2.32164 29.694 2.76815 28.8659 3.81001C28.036 4.85001 27.6713 6.0128 27.6713 7.73931Z" fill="#003C50"/>
<path d="M106.399 7.71885C106.399 5.96629 107.004 4.50396 108.212 3.33187C109.421 2.15978 110.929 1.57373 112.736 1.57373C114.488 1.57373 115.972 2.16722 117.183 3.35606C118.394 4.54489 119.001 5.99792 119.001 7.71699C119.001 9.46955 118.389 10.9505 117.168 12.1579C115.945 13.3672 114.451 13.9719 112.685 13.9719C110.925 13.9719 109.438 13.3672 108.221 12.1579C107.008 10.9523 106.399 9.47141 106.399 7.71885ZM108.262 7.73931C108.262 9.46397 108.621 10.6416 109.442 11.704C110.261 12.7682 111.77 13.2612 112.776 13.2612C113.783 13.2612 115.099 12.757 115.934 11.6686C116.772 10.5802 117.138 9.4435 117.138 7.81931C117.138 6.0742 116.777 4.89094 115.959 3.8342C115.14 2.77745 113.735 2.32164 112.724 2.32164C111.714 2.32164 110.285 2.76815 109.457 3.81001C108.627 4.85001 108.262 6.0128 108.262 7.73931Z" fill="#003C50"/>
<path d="M52.4856 1.86719H55.2768V2.02161C54.3911 2.04207 53.9463 2.75463 53.9463 3.78161C53.9463 3.86905 53.95 3.96021 53.9556 4.05324L53.9593 11.3351C53.9593 12.3677 54.0859 12.6263 54.285 12.883C54.4822 13.1398 54.8377 13.4077 55.355 13.456L55.3587 13.6812H51.1067L51.1179 13.456C51.5682 13.3816 51.8752 13.1156 52.0613 12.8942C52.2455 12.6709 52.3404 12.3305 52.3404 11.8709C52.3404 11.776 52.3367 11.6718 52.3293 11.5565L52.3572 4.03649L48.2261 12.2039L43.7862 3.93789L43.7973 11.203C43.7899 11.3165 43.7862 11.4244 43.7862 11.5267C43.7862 12.5463 44.2942 13.2663 45.3195 13.456L45.3251 13.6812H41.6481L41.6537 13.456C42.1431 13.3891 42.491 13.1621 42.7087 12.8849C42.9265 12.6058 42.9748 12.0998 42.9544 11.1825L43.0009 3.45417C43.0009 2.48486 42.2714 2.12207 41.6611 2.02161V1.86719H44.6533L48.4829 9.59371L52.4856 1.86719Z" fill="#003C50"/>
<path d="M66.7917 6.57789H66.9871V9.09324H66.8326C66.7061 8.58905 66.3879 8.47184 66.1962 8.37324C65.999 8.27277 65.6175 8.21696 65.0053 8.21696H62.067V12.0811C62.067 12.377 62.1322 12.5853 62.2624 12.7063C62.3945 12.8272 62.6178 12.8867 62.9342 12.8867H65.0034C65.744 12.8867 66.2558 12.8458 66.5367 12.7658C66.8196 12.6858 67.2141 12.5816 67.4095 12.3639C67.6049 12.1463 67.6458 12.1258 67.8691 11.6365H68.1389L67.6793 13.683H59.1771L59.1846 13.4579C59.7056 13.4579 60.0536 13.2049 60.236 12.9332C60.4165 12.6616 60.5076 12.1779 60.5076 11.4858V4.09417C60.5076 3.37417 60.4146 2.88114 60.2267 2.61323C60.0387 2.34533 59.6926 2.02161 59.1753 2.02161L59.1678 1.86719H67.6812V3.75556H67.5416C67.4206 3.19184 67.1899 3.04858 66.9554 2.90161C66.7079 2.74719 66.2278 2.65975 65.4761 2.65975H62.0707V7.49696H65.3812C65.8315 7.49696 66.1813 7.44673 66.3451 7.28673C66.5107 7.12487 66.7172 7.02812 66.7917 6.57789Z" fill="#003C50"/>
<path d="M88.9857 8.55957V8.75864C88.4628 8.75864 88.407 8.97446 88.2265 9.2312C88.0367 9.49911 87.9566 9.91772 87.9566 10.5019V13.6814C87.6812 13.754 87.1658 13.8228 86.4103 13.8842C85.6548 13.9438 85.0686 13.9754 84.6518 13.9754C82.4691 13.9754 80.7683 13.4377 79.5494 12.3642C78.3306 11.2907 77.7202 9.87306 77.7202 8.11306C77.7202 6.88515 77.9863 5.77632 78.5204 4.79027C79.0544 3.80236 79.7988 3.02096 80.7552 2.44422C81.7117 1.86747 82.7259 1.5791 83.7996 1.5791C84.4434 1.5791 85.1449 1.69259 85.9023 1.92143C86.3842 2.06282 86.7546 2.13352 87.0095 2.13352C87.3444 2.13352 87.9529 2.13166 88.059 1.8712H88.0646L88.059 4.94097H87.8599C87.7259 3.97352 87.2886 3.50282 86.5052 2.98934C85.7013 2.49817 84.7746 2.37724 83.7809 2.37724C82.5342 2.37724 81.5293 2.75306 80.731 3.75027C79.9327 4.74748 79.5327 5.81725 79.5327 7.39492C79.5327 9.12702 80.0351 10.3866 80.9599 11.527C81.8829 12.6693 82.9845 13.0191 84.3801 13.0191C85.7032 13.0191 86.3824 12.8517 86.3824 12.0107V10.8759C86.3824 10.1484 86.2875 9.6405 86.0958 9.35213C85.9042 9.0619 85.6455 8.76981 85.1617 8.76981V8.57074H88.9857V8.55957Z" fill="#003C50"/>
<path d="M88.9857 8.55957V8.75864C88.4628 8.75864 88.407 8.97446 88.2265 9.2312C88.0367 9.49911 87.9566 9.91772 87.9566 10.5019V13.6814C87.6812 13.754 87.1658 13.8228 86.4103 13.8842C85.6548 13.9438 85.0686 13.9754 84.6518 13.9754C82.4691 13.9754 80.7683 13.4377 79.5494 12.3642C78.3306 11.2907 77.7202 9.87306 77.7202 8.11306C77.7202 6.88515 77.9863 5.77632 78.5204 4.79027C79.0544 3.80236 79.7988 3.02096 80.7552 2.44422C81.7117 1.86747 82.7259 1.5791 83.7996 1.5791C84.4434 1.5791 85.1449 1.69259 85.9023 1.92143C86.3842 2.06282 86.7546 2.13352 87.0095 2.13352C87.3444 2.13352 87.9529 2.13166 88.059 1.8712H88.0646L88.059 4.94097H87.8599C87.7259 3.97352 87.2886 3.50282 86.5052 2.98934C85.7013 2.49817 84.7746 2.37724 83.7809 2.37724C82.5342 2.37724 81.5293 2.75306 80.731 3.75027C79.9327 4.74748 79.5327 5.81725 79.5327 7.39492C79.5327 9.12702 80.0351 10.3866 80.9599 11.527C81.8829 12.6693 82.9845 13.0191 84.3801 13.0191C85.7032 13.0191 86.3824 12.8517 86.3824 12.0107V10.8759C86.3824 10.1484 86.2875 9.6405 86.0958 9.35213C85.9042 9.0619 85.6455 8.76981 85.1617 8.76981V8.57074H88.9857V8.55957Z" fill="#003C50"/>
<path d="M96.8107 7.92105C97.5829 7.69222 98.2993 7.50617 98.7925 7.00942C99.2856 6.51268 99.6317 5.81873 99.6317 4.99826C99.6317 4.19826 99.3675 3.7071 98.8204 3.21407C98.2733 2.72105 97.5401 2.53872 96.6395 2.53872H95.4001V7.71826V8.21129V11.4541C95.4001 12.1518 95.4988 12.6392 95.6979 12.9145C95.8951 13.1899 96.2468 13.4578 96.7511 13.4578V13.6811H92.4991L92.5009 13.4578C93.0238 13.4578 93.3774 13.1918 93.5616 12.9145C93.7459 12.6392 93.8389 12.1518 93.8389 11.4541V4.05128C93.8389 3.35175 93.7477 2.87175 93.5672 2.6057C93.3867 2.33965 93.0276 2.01965 92.4954 2.01965L92.4991 1.86523H97.3447C98.5394 1.86523 99.6429 2.15547 100.357 2.73593C101.072 3.3164 101.431 4.05686 101.431 4.95733C101.431 6.40663 100.605 7.68849 98.8483 7.8578C99.3172 8.17966 99.5703 8.50152 99.9946 8.87175C100.864 9.63082 101.543 10.548 102.402 11.3648C103.164 12.0866 103.333 12.3434 103.804 12.7155C104.193 13.0485 104.756 13.4485 105.145 13.4485L105.14 13.6866C104.066 13.7127 103.502 13.7443 102.817 13.4969C102.135 13.2494 101.826 12.9871 100.903 12.029C99.7247 10.8066 98.8557 9.9564 98.4575 9.51733C98.0463 9.06152 97.4564 8.39175 96.8107 7.92105Z" fill="#003C50"/>
<path d="M129.868 1.8916L129.872 2.01997C130.402 2.01997 130.758 2.36788 130.946 2.63579C131.134 2.9037 131.229 3.39114 131.229 4.09625V10.0795C131.229 11.4767 130.964 11.8804 130.432 12.433C129.902 12.9874 129.163 13.2646 128.216 13.2646C127.269 13.2646 126.53 12.9874 126 12.433C125.469 11.8804 125.203 11.5158 125.203 10.0795V4.09812C125.203 3.393 125.296 2.90556 125.486 2.63765C125.674 2.36974 126.026 2.02183 126.558 2.02183L126.565 1.89346H122.293L122.3 2.02183C122.823 2.02183 123.171 2.37346 123.357 2.64881C123.541 2.92416 123.635 3.41346 123.635 4.11858V9.93068C123.635 11.153 123.992 12.1372 124.708 12.8814C125.423 13.6274 126.844 13.9995 128.214 13.9995C129.584 13.9995 131.016 13.6274 131.731 12.8814C132.446 12.1353 132.805 11.153 132.805 9.93068V4.11858C132.805 3.41346 132.898 2.92416 133.082 2.64881C133.266 2.37346 133.62 2.02183 134.145 2.02183V1.89346H129.868V1.8916Z" fill="#003C50"/>
<path d="M145.107 2.80291C144.284 2.17779 143.168 1.86523 141.757 1.86523H137.445L137.449 2.01779C137.959 2.01779 138.307 2.3471 138.499 2.62244C138.69 2.89779 138.785 3.38896 138.785 4.09407V11.5043C138.785 12.1629 138.69 12.6336 138.499 12.9164C138.307 13.1992 137.952 13.4578 137.442 13.4578L137.447 13.6829H141.699L141.703 13.4541C141.193 13.4541 140.838 13.2066 140.646 12.9369C140.454 12.6671 140.36 12.1778 140.36 11.4634V8.26338C141.05 8.26338 141.655 8.27268 142.174 8.27268C143.517 8.27268 144.548 8.0085 145.267 7.48198C145.985 6.95547 146.344 6.20198 146.344 5.22152C146.34 4.23361 145.929 3.42803 145.107 2.80291ZM143.921 6.88105C143.408 7.33687 142.702 7.51175 141.815 7.51175C141.238 7.51175 140.771 7.51175 140.363 7.51175L140.358 5.02245V5.01873V2.5257C140.765 2.5257 141.242 2.54058 141.818 2.54058C142.704 2.54058 143.406 2.66524 143.919 3.12105C144.433 3.57686 144.682 4.17779 144.682 5.02245C144.682 5.86524 144.435 6.42338 143.921 6.88105Z" fill="#003C50"/>
</svg>
